<?xml version="1.0" encoding="utf-8"?>
<!-- Generator: Adobe Illustrator 21.0.2, SVG Export Plug-In . SVG Version: 6.00 Build 0)  -->
<svg version="1.1" id="Layer_1" xmlns="http://www.w3.org/2000/svg" xmlns:xlink="http://www.w3.org/1999/xlink" x="0px" y="0px"
	 viewBox="0 0 16.6 13" style="enable-background:new 0 0 16.6 13;" xml:space="preserve">
<style type="text/css">
	.st0{fill:#6A696C;}
</style>
<path id="facebook" class="st0" d="M13.1,0.3H3.5c-0.8,0-1.4,0.6-1.4,1.4v9.6c0,0.8,0.6,1.4,1.4,1.4h4.8V7.9H7V6.2h1.4V4.8
	c-0.1-1.3,0.8-2.4,2.1-2.5c0.2,0,0.3,0,0.5,0h1.2V4h-0.8c-0.5,0-0.9,0.4-0.9,0.9c0,0,0,0.1,0,0.1v1.2h1.8l-0.4,1.7h-1.4v4.8h2.7
	c0.8,0,1.4-0.6,1.4-1.4V1.7C14.5,0.9,13.9,0.3,13.1,0.3z"/>
</svg>
