<?xml version="1.0" encoding="utf-8"?>
<!-- Generator: Adobe Illustrator 21.0.2, SVG Export Plug-In . SVG Version: 6.00 Build 0)  -->
<svg version="1.1" id="Layer_1" xmlns="http://www.w3.org/2000/svg" xmlns:xlink="http://www.w3.org/1999/xlink" x="0px" y="0px"
	 viewBox="0 0 16.6 13" style="enable-background:new 0 0 16.6 13;" xml:space="preserve">
<style type="text/css">
	.st0{fill:#6A696C;}
</style>
<path id="instagram" class="st0" d="M14.4,4c0-0.5-0.1-1-0.3-1.5c-0.2-0.4-0.4-0.8-0.7-1.1c-0.3-0.3-0.7-0.6-1.1-0.7
	c-0.5-0.2-1-0.3-1.5-0.3c-0.7,0-0.9,0-2.5,0s-1.9,0-2.5,0c-0.5,0-1,0.1-1.5,0.3C3.9,0.8,3.5,1.1,3.2,1.4C2.9,1.7,2.7,2.1,2.5,2.5
	C2.3,3,2.2,3.5,2.2,4c0,0.7,0,0.9,0,2.5s0,1.9,0,2.5c0,0.5,0.1,1,0.3,1.5c0.2,0.4,0.4,0.8,0.7,1.1c0.3,0.3,0.7,0.6,1.1,0.7
	c0.5,0.2,1,0.3,1.5,0.3c0.7,0,0.9,0,2.5,0s1.9,0,2.5,0c0.5,0,1-0.1,1.5-0.3c0.8-0.3,1.5-1,1.8-1.8c0.2-0.5,0.3-1,0.3-1.5
	c0-0.7,0-0.9,0-2.5S14.5,4.6,14.4,4z M13.3,9c0,0.4-0.1,0.8-0.2,1.1c-0.2,0.5-0.6,1-1.2,1.2c-0.4,0.1-0.8,0.2-1.1,0.2
	c-0.6,0-0.8,0-2.5,0s-1.8,0-2.5,0c-0.4,0-0.8-0.1-1.1-0.2c-0.3-0.1-0.5-0.3-0.7-0.5c-0.2-0.2-0.4-0.4-0.5-0.7C3.4,9.8,3.3,9.4,3.3,9
	c0-0.6,0-0.8,0-2.5s0-1.8,0-2.5c0-0.4,0.1-0.8,0.2-1.1C3.6,2.6,3.8,2.4,4,2.2C4.2,2,4.4,1.8,4.7,1.7c0.4-0.1,0.8-0.2,1.1-0.2
	c0.6,0,0.8,0,2.5,0s1.8,0,2.5,0c0.4,0,0.8,0.1,1.1,0.2c0.3,0.1,0.5,0.3,0.7,0.5c0.2,0.2,0.4,0.4,0.5,0.7c0.1,0.4,0.2,0.8,0.2,1.1
	c0,0.6,0,0.8,0,2.5S13.4,8.4,13.3,9L13.3,9z M8.3,3.4c-1.7,0-3.2,1.4-3.2,3.2s1.4,3.2,3.2,3.2s3.2-1.4,3.2-3.2l0,0
	C11.5,4.8,10.1,3.4,8.3,3.4z M8.3,8.6c-1.1,0-2-0.9-2-2s0.9-2,2-2s2,0.9,2,2S9.5,8.6,8.3,8.6z M12.3,3.2C12.3,3.6,12,4,11.6,4
	c-0.4,0-0.7-0.3-0.7-0.7s0.3-0.7,0.7-0.7l0,0C12,2.5,12.3,2.8,12.3,3.2z"/>
</svg>
