<?xml version="1.0" encoding="utf-8"?>
<!-- Generator: Adobe Illustrator 21.0.2, SVG Export Plug-In . SVG Version: 6.00 Build 0)  -->
<svg version="1.1" id="Layer_1" xmlns="http://www.w3.org/2000/svg" xmlns:xlink="http://www.w3.org/1999/xlink" x="0px" y="0px"
	 viewBox="0 0 289.5 74" style="enable-background:new 0 0 289.5 74;" xml:space="preserve">
<style type="text/css">
	.st0{fill:#9EA1A2;}
</style>
<g>
	<g>
		<path class="st0" d="M25.3,27h-3.6V7.2h-0.1l-7.9,9.8h-0.6L5.2,7.2H5.2v19.8H1.5V1.6h3.4L13.4,12l8.4-10.5h3.4L25.3,27L25.3,27z"
			/>
		<path class="st0" d="M66.7,27h-3.7l-3.4-7.5H48.7L45.5,27h-3.7l11-25.6h2.6L66.7,27z M50.1,16.2H58L54,7L50.1,16.2z"/>
		<path class="st0" d="M89.8,1.6c5.2,0,8.4,2.7,8.4,7.1c0,2.9-1.5,5.2-4.2,6.2c2.3,1.5,3.7,3.9,5.7,7.1c1.1,1.8,1.7,2.6,3.5,5h-4.4
			l-3.4-5.3c-3.4-5.3-4.9-5.8-6.8-5.8H87V27h-3.6V1.6H89.8z M87,12.7h2.4c3.9,0,5-2,5-4.1c-0.1-2.4-1.5-3.8-5-3.8H87V12.7z"/>
		<path class="st0" d="M142,25.3c-3.4,1.5-6.2,2.1-9.7,2.1c-7.8,0-13.5-5.5-13.5-12.9c0-7.5,5.9-13.2,13.7-13.2c3,0,5.1,0.5,9.1,2.2
			v3.7c-3-1.7-6.1-2.5-9.1-2.5c-5.5,0-9.8,4.2-9.8,9.7c0,5.7,4.2,9.7,10.3,9.7c2,0,3.8-0.5,5.5-1v-5.2h-4.9v-3.3h8.5L142,25.3
			L142,25.3z"/>
		<path class="st0" d="M183.2,27h-3.7l-3.4-7.5h-10.8l-3.2,7.5h-3.7l11-25.6h2.6L183.2,27z M166.7,16.2h7.9L170.5,7L166.7,16.2z"/>
		<path class="st0" d="M206.3,1.6c5.2,0,8.4,2.7,8.4,7.1c0,2.9-1.5,5.2-4.2,6.2c2.3,1.5,3.7,3.9,5.7,7.1c1.1,1.8,1.7,2.6,3.5,5h-4.4
			l-3.3-5.2c-3.4-5.3-4.9-5.8-6.8-5.8h-1.5v11.1h-3.6V1.6H206.3z M203.6,12.7h2.4c3.9,0,5-2,5-4.1c-0.1-2.4-1.5-3.8-5-3.8h-2.4V12.7
			z"/>
		<path class="st0" d="M250.6,4.8h-10.8v7.7h10.4v3.3h-10.4v7.9h11.1V27h-14.8V1.6h14.4L250.6,4.8L250.6,4.8z"/>
		<path class="st0" d="M287.8,4.8H279V27h-3.6V4.8h-8.8V1.6h21.3L287.8,4.8L287.8,4.8z"/>
		<path class="st0" d="M23.2,71.8h-3.6V60.7H5.2v11.1H1.6V46.3h3.6v11.1h14.2V46.3h3.6L23.2,71.8L23.2,71.8z"/>
		<path class="st0" d="M55.2,46c8.4,0,13.7,6,13.7,13.1c0,6.9-5.2,13.1-13.8,13.1c-8.3,0-13.6-6.2-13.6-13.1
			C41.5,52.1,46.9,46,55.2,46z M55.2,68.8c5.7,0,9.9-4.1,9.9-9.7c0-5.6-4.2-9.7-9.9-9.7c-5.7,0-9.9,4.1-9.9,9.7
			C45.3,64.7,49.5,68.8,55.2,68.8z"/>
		<path class="st0" d="M111.6,72h-0.7l-8.4-20.9L94.1,72h-0.7L83,46.3h3.6l7,17.6l7.1-17.6h3.5l7.1,17.6l7-17.6h3.6L111.6,72z"/>
		<path class="st0" d="M153,49.7h-10.8v7.7h10.4v3.3h-10.4v7.9h11.1v3.3h-14.8V46.3h14.4L153,49.7L153,49.7z"/>
		<path class="st0" d="M174.6,68.6h11.5v3.3H171V46.3h3.6L174.6,68.6L174.6,68.6z"/>
		<path class="st0" d="M206.7,68.6h11.5v3.3h-15.1V46.3h3.6V68.6z"/>
	</g>
</g>
</svg>
