<?xml version="1.0" encoding="utf-8"?>
<!-- Generator: Adobe Illustrator 21.0.2, SVG Export Plug-In . SVG Version: 6.00 Build 0)  -->
<svg version="1.1" id="Layer_1" xmlns="http://www.w3.org/2000/svg" xmlns:xlink="http://www.w3.org/1999/xlink" x="0px" y="0px"
	 viewBox="0 0 16.6 13" style="enable-background:new 0 0 16.6 13;" xml:space="preserve">
<style type="text/css">
	.st0{fill:#6A696C;}
</style>
<path id="pinterest" class="st0" d="M7.5,8.5c-0.3,1.7-0.7,3.3-1.9,4.1c-0.4-2.5,0.5-4.5,0.9-6.5C5.8,5,6.6,2.6,8.1,3.2
	C9.9,3.9,6.5,7.6,8.8,8c2.4,0.5,3.3-4.1,1.9-5.6C8.5,0.2,4.5,2.3,5,5.4c0.1,0.8,0.9,1,0.3,2C3.9,7.2,3.5,6.1,3.6,4.7
	c0.2-2.2,1.9-4,4.1-4.2c2.6-0.3,5,0.9,5.3,3.4c0.4,2.7-1.2,5.7-3.9,5.5C8.4,9.2,8.1,8.8,7.5,8.5z"/>
</svg>
