<?xml version="1.0" encoding="utf-8"?>
<!-- Generator: Adobe Illustrator 21.0.2, SVG Export Plug-In . SVG Version: 6.00 Build 0)  -->
<svg version="1.1" id="Layer_1" xmlns="http://www.w3.org/2000/svg" xmlns:xlink="http://www.w3.org/1999/xlink" x="0px" y="0px"
	 viewBox="0 0 16.6 13" style="enable-background:new 0 0 16.6 13;" xml:space="preserve">
<style type="text/css">
	.st0{fill:#696A6C;}
</style>
<path class="st0" d="M14.1,4.1c0,0-0.1-0.8-0.5-1.2c-0.5-0.5-1-0.5-1.2-0.5c-1.7-0.1-4.2-0.1-4.2-0.1h0c0,0-2.5,0-4.1,0.1
	C3.9,2.5,3.4,2.5,3,3C2.6,3.3,2.5,4.1,2.5,4.1s-0.1,1-0.1,1.9V7c0,1,0.1,1.9,0.1,1.9S2.6,9.7,3,10.1c0.5,0.5,1,0.5,1.3,0.5
	c0.9,0.1,4,0.1,4,0.1s2.5,0,4.2-0.1c0.2,0,0.7,0,1.2-0.5c0.4-0.4,0.5-1.2,0.5-1.2s0.1-1,0.1-1.9V6.1C14.3,5.1,14.1,4.1,14.1,4.1
	 M7.1,8.1l0-3.3l3.2,1.7L7.1,8.1z"/>
</svg>
